<?xml version="1.0" encoding="UTF-8" standalone="no"?>
<!-- Created with Inkscape (http://www.inkscape.org/) -->

<svg
   xmlns:dc="http://purl.org/dc/elements/1.1/"
   xmlns:cc="http://creativecommons.org/ns#"
   xmlns:rdf="http://www.w3.org/1999/02/22-rdf-syntax-ns#"
   xmlns:svg="http://www.w3.org/2000/svg"
   xmlns="http://www.w3.org/2000/svg"
   xmlns:sodipodi="http://sodipodi.sourceforge.net/DTD/sodipodi-0.dtd"
   xmlns:inkscape="http://www.inkscape.org/namespaces/inkscape"
   width="210mm"
   height="297mm"
   viewBox="0 0 210 297"
   version="1.1"
   id="svg8"
   inkscape:version="0.92.1 r15371"
   sodipodi:docname="drillings.svg">
  <defs
     id="defs2" />
  <sodipodi:namedview
     id="base"
     pagecolor="#ffffff"
     bordercolor="#666666"
     borderopacity="1.0"
     inkscape:pageopacity="0.0"
     inkscape:pageshadow="2"
     inkscape:zoom="0.7"
     inkscape:cx="592.26443"
     inkscape:cy="324.54452"
     inkscape:document-units="mm"
     inkscape:current-layer="layer1"
     showgrid="false" />
  <metadata
     id="metadata5">
    <rdf:RDF>
      <cc:Work
         rdf:about="">
        <dc:format>image/svg+xml</dc:format>
        <dc:type
           rdf:resource="http://purl.org/dc/dcmitype/StillImage" />
        <dc:title></dc:title>
      </cc:Work>
    </rdf:RDF>
  </metadata>
  <g
     inkscape:label="Ebene 1"
     inkscape:groupmode="layer"
     id="layer1">
    <rect
       style="opacity:1;fill:none;fill-opacity:1;stroke:#000000;stroke-width:0.5;stroke-linejoin:round;stroke-miterlimit:4;stroke-dasharray:none;stroke-opacity:1"
       id="rect4485"
       width="334.78406"
       height="234.78407"
       x="0.10796434"
       y="62.107964"
       ry="1.8249241" />
    <path
       style="opacity:1;fill:none;fill-opacity:1;stroke:#000000;stroke-width:0.43790954;stroke-linejoin:round;stroke-miterlimit:4;stroke-dasharray:none;stroke-opacity:1"
       id="path4487"
       sodipodi:type="arc"
       sodipodi:cx="21.6"
       sodipodi:cy="275.39999"
       sodipodi:rx="1.3810396"
       sodipodi:ry="1.3810284"
       sodipodi:start="0.025081952"
       sodipodi:end="0.025045824"
       sodipodi:open="true"
       d="m 22.980606,275.43463 a 1.3810396,1.3810284 0 0 1 -1.415229,1.34596 1.3810396,1.3810284 0 0 1 -1.345982,-1.41521 1.3810396,1.3810284 0 0 1 1.415204,-1.34598 1.3810396,1.3810284 0 0 1 1.346008,1.41518" />
    <path
       style="opacity:1;fill:none;fill-opacity:1;stroke:#000000;stroke-width:0.43790889;stroke-linejoin:round;stroke-miterlimit:4;stroke-dasharray:none;stroke-opacity:1"
       id="path4487-3"
       sodipodi:type="arc"
       sodipodi:cx="316.59998"
       sodipodi:cy="80.400017"
       sodipodi:rx="1.38104"
       sodipodi:ry="1.3810287"
       sodipodi:start="0.025081952"
       sodipodi:end="0.025045824"
       sodipodi:open="true"
       d="m 317.98058,80.434652 a 1.38104,1.3810287 0 0 1 -1.41523,1.345959 1.38104,1.3810287 0 0 1 -1.34598,-1.415205 1.38104,1.3810287 0 0 1 1.4152,-1.345984 1.38104,1.3810287 0 0 1 1.34601,1.41518" />
    <path
       style="opacity:1;fill:none;fill-opacity:1;stroke:#000000;stroke-width:0.43790954;stroke-linejoin:round;stroke-miterlimit:4;stroke-dasharray:none;stroke-opacity:1"
       id="path4487-7"
       sodipodi:type="arc"
       sodipodi:cx="316.60001"
       sodipodi:cy="275.39999"
       sodipodi:rx="1.3810396"
       sodipodi:ry="1.3810284"
       sodipodi:start="0.025081952"
       sodipodi:end="0.025045824"
       sodipodi:open="true"
       d="m 317.98061,275.43463 a 1.3810396,1.3810284 0 0 1 -1.41523,1.34596 1.3810396,1.3810284 0 0 1 -1.34598,-1.41521 1.3810396,1.3810284 0 0 1 1.4152,-1.34598 1.3810396,1.3810284 0 0 1 1.34601,1.41518" />
    <path
       style="opacity:1;fill:none;fill-opacity:1;stroke:#000000;stroke-width:0.43790954;stroke-linejoin:round;stroke-miterlimit:4;stroke-dasharray:none;stroke-opacity:1"
       id="path4487-4"
       sodipodi:type="arc"
       sodipodi:cx="21.6"
       sodipodi:cy="80.400009"
       sodipodi:rx="1.3810396"
       sodipodi:ry="1.3810284"
       sodipodi:start="0.025081952"
       sodipodi:end="0.025045824"
       sodipodi:open="true"
       d="m 22.980606,80.434644 a 1.3810396,1.3810284 0 0 1 -1.415229,1.345959 1.3810396,1.3810284 0 0 1 -1.345982,-1.415204 1.3810396,1.3810284 0 0 1 1.415204,-1.345985 1.3810396,1.3810284 0 0 1 1.346008,1.415181" />
    <path
       style="opacity:1;fill:none;fill-opacity:1;stroke:#000000;stroke-width:0.55770963;stroke-linejoin:round;stroke-miterlimit:4;stroke-dasharray:none;stroke-opacity:1"
       id="path4487-3-0"
       sodipodi:type="arc"
       sodipodi:cx="253.64532"
       sodipodi:cy="187.74094"
       sodipodi:rx="7.2211032"
       sodipodi:ry="7.2211099"
       sodipodi:start="0.025081952"
       sodipodi:end="0.025045824"
       sodipodi:open="true"
       d="m 260.86416,187.92204 a 7.2211032,7.2211099 0 0 1 -7.39987,7.03774 7.2211032,7.2211099 0 0 1 -7.0378,-7.39981 7.2211032,7.2211099 0 0 1 7.39974,-7.03788 7.2211032,7.2211099 0 0 1 7.03793,7.39969" />
    <path
       style="opacity:1;fill:none;fill-opacity:1;stroke:#000000;stroke-width:0.57594347;stroke-linejoin:round;stroke-miterlimit:4;stroke-dasharray:none;stroke-opacity:1"
       id="path4487-3-9"
       sodipodi:type="arc"
       sodipodi:cx="137.92215"
       sodipodi:cy="167.77351"
       sodipodi:rx="49.71172"
       sodipodi:ry="49.711746"
       sodipodi:start="0.025081952"
       sodipodi:end="0.025045824"
       sodipodi:open="true"
       d="m 187.61823,169.02025 a 49.71172,49.711746 0 0 1 -50.94237,48.44939 49.71172,49.711746 0 0 1 -48.449816,-50.94197 49.71172,49.711746 0 0 1 50.941496,-48.4503 49.71172,49.711746 0 0 1 48.45074,50.94109" />
  </g>
</svg>
